<svg id="Layer_1" data-name="Layer 1" xmlns="http://www.w3.org/2000/svg" viewBox="0 0 68.05 52.81"><defs><style>.cls-1{fill:#ff5f00;}.cls-2{fill:#eb001b;}.cls-3{fill:#f79e1b;}</style></defs><title>mastercard-logo</title><path d="M12.38,52.69V49.18A2,2,0,0,0,10.16,47a2.28,2.28,0,0,0-2,1,2.06,2.06,0,0,0-1.87-1,1.89,1.89,0,0,0-1.64.81v-.7H3.45v5.61H4.67v-3.1A1.27,1.27,0,0,1,6,48.13c.81,0,1.22.53,1.22,1.46v3.1H8.47v-3.1a1.29,1.29,0,0,1,1.34-1.46c.82,0,1.23.53,1.23,1.46v3.1Zm18.17-5.61h-2V45.39H27.34v1.69H26.23v1.11h1.11v2.57c0,1.29.52,2.05,1.93,2.05a3.27,3.27,0,0,0,1.51-.41l-.35-1a2,2,0,0,1-1.05.29c-.58,0-.82-.35-.82-.94V48.19h2V47.08ZM41,47a1.65,1.65,0,0,0-1.46.81v-.7H38.26v5.61h1.23V49.54c0-.94.41-1.47,1.17-1.47a3.43,3.43,0,0,1,.76.12L41.77,47A4.57,4.57,0,0,0,41,47Zm-15.72.58A4,4,0,0,0,23,47c-1.41,0-2.34.7-2.34,1.81,0,.93.7,1.46,1.93,1.63l.58.06c.64.12,1,.29,1,.58s-.47.71-1.29.71A3.24,3.24,0,0,1,21,51.17l-.58.94a4.18,4.18,0,0,0,2.39.7c1.64,0,2.57-.76,2.57-1.81s-.76-1.52-1.93-1.7l-.58-.06c-.53-.06-.93-.17-.93-.52s.4-.65,1.05-.65a4.28,4.28,0,0,1,1.75.47l.52-1ZM57.83,47a1.65,1.65,0,0,0-1.46.81v-.7H55.14v5.61h1.23V49.54c0-.94.41-1.47,1.17-1.47a3.43,3.43,0,0,1,.76.12L58.65,47a4.57,4.57,0,0,0-.82-.05ZM42.18,49.89a2.8,2.8,0,0,0,3,2.92,2.9,2.9,0,0,0,2-.65l-.58-1a2.39,2.39,0,0,1-1.46.53,1.66,1.66,0,0,1-1.7-1.81,1.73,1.73,0,0,1,1.7-1.82,2.39,2.39,0,0,1,1.46.53l.58-1a2.89,2.89,0,0,0-2-.64,2.8,2.8,0,0,0-3,2.92Zm11.33,0V47.08H52.28v.7A2.12,2.12,0,0,0,50.53,47a2.92,2.92,0,0,0,0,5.84A2,2,0,0,0,52.28,52v.7h1.23Zm-4.5,0a1.7,1.7,0,1,1,3.39,0,1.7,1.7,0,1,1-3.39,0ZM34.35,47a2.92,2.92,0,0,0,.06,5.84,3.59,3.59,0,0,0,2.27-.76l-.58-.88a2.81,2.81,0,0,1-1.64.59,1.59,1.59,0,0,1-1.69-1.35h4.15v-.47a2.58,2.58,0,0,0-2.57-3Zm0,1.05a1.36,1.36,0,0,1,1.4,1.34H32.83A1.48,1.48,0,0,1,34.35,48Zm30.43,1.87v-5H63.55v2.92A2.1,2.1,0,0,0,61.8,47a2.92,2.92,0,0,0,0,5.84A2,2,0,0,0,63.55,52v.7h1.23Zm-4.5,0a1.7,1.7,0,1,1,3.39,0,1.7,1.7,0,1,1-3.39,0Zm-41,0V47.08H18.05v.7A2.12,2.12,0,0,0,16.3,47a2.92,2.92,0,0,0,0,5.84A2,2,0,0,0,18.05,52v.7h1.23Zm-4.56,0a1.7,1.7,0,1,1,3.39,0,1.7,1.7,0,1,1-3.39,0Z"/><rect class="cls-1" x="24.83" y="4.5" width="18.4" height="33.06"/><path class="cls-2" d="M26,21A21.07,21.07,0,0,1,34,4.5,21,21,0,1,0,21,42.06a20.94,20.94,0,0,0,13-4.5A21,21,0,0,1,26,21Z"/><path class="cls-3" d="M68.05,21a21,21,0,0,1-34,16.53,21.08,21.08,0,0,0,0-33.06A21,21,0,0,1,68.05,21Z"/></svg>