<svg id="Layer_1" data-name="Layer 1" xmlns="http://www.w3.org/2000/svg" viewBox="0 0 89.8 31.09"><defs><style>.cls-1{fill:#ed342b;}.cls-1,.cls-2,.cls-3{fill-rule:evenodd;}.cls-2{fill:#fefefe;}.cls-3{fill:#03435f;}</style></defs><title>verve-logo</title><path class="cls-1" d="M31.09,15.54A15.55,15.55,0,1,1,15.54,0,15.55,15.55,0,0,1,31.09,15.54"/><path class="cls-2" d="M15.54,22.2C12.07,14.32,9.52,7,9.52,7H4.19a181.68,181.68,0,0,0,9.27,21.26h4.17A181.68,181.68,0,0,0,26.9,7H21.57s-2.55,7.36-6,15.24"/><path class="cls-3" d="M82.48,14.73c-3,0-3.24,3.25-3.24,3.25h6.49s-.23-3.25-3.25-3.25m7.19,6.49H79.24s.23,3.48,4.87,3.48a18.42,18.42,0,0,0,4.63-.7l.46,3.71a16.31,16.31,0,0,1-5.56.93c-4.63,0-8.8-2.32-8.8-8.81,0-5.1,3.24-8.34,7.87-8.34,7,0,7.42,7,7,9.73M54.21,15.75l.72-3.83s-5.55-1.68-10,1.43V28.66h4.78V16.22c1.92-1.43,4.55-.47,4.55-.47m-19.94-1C31.26,14.73,31,18,31,18h6.49s-.24-3.25-3.25-3.25m7.19,6.49H31s.23,3.48,4.86,3.48a18.44,18.44,0,0,0,4.64-.7L41,27.71a16.38,16.38,0,0,1-5.56.93c-4.63,0-8.81-2.32-8.81-8.81,0-5.1,3.25-8.34,7.88-8.34,7,0,7.42,7,7,9.73m24.42,1.59a75.24,75.24,0,0,1-3.64-11.32H57.38a90.72,90.72,0,0,0,6.56,17.14h3.88a90.72,90.72,0,0,0,6.56-17.14H69.52a75.24,75.24,0,0,1-3.64,11.32"/></svg>