<svg id="Layer_1" data-name="Layer 1" xmlns="http://www.w3.org/2000/svg" viewBox="0 0 89.72 27.21"><defs><style>.cls-1{fill:#3c58bf;}.cls-2{fill:#293688;}.cls-3{fill:#ffbc00;}.cls-4{fill:#f7981d;}.cls-5{fill:#ed7c00;}.cls-6{fill:#051244;}</style></defs><title>visa-logo</title><polygon class="cls-1" points="32.89 26.48 37.45 0.85 44.57 0.85 40.15 26.48 32.89 26.48"/><polygon class="cls-2" points="32.89 26.48 38.74 0.85 44.57 0.85 40.15 26.48 32.89 26.48"/><path class="cls-1" d="M65.93,1.14A17.72,17.72,0,0,0,59.38,0C52.26,0,47.12,3.57,47.12,8.69c0,3.84,3.57,5.85,6.41,7.11s3.71,2.14,3.71,3.28c0,1.7-2.28,2.57-4.27,2.57a15.48,15.48,0,0,1-6.84-1.43l-1-.43-1,5.84a23.1,23.1,0,0,0,8.11,1.43c7.55,0,12.53-3.56,12.53-9,0-3-1.85-5.26-6.12-7.11-2.57-1.29-4.13-2-4.13-3.28s1.29-2.28,4.13-2.28a13.17,13.17,0,0,1,5.41,1l.71.29,1.16-5.56Z"/><path class="cls-2" d="M65.93,1.14A17.72,17.72,0,0,0,59.38,0c-7.12,0-11,3.57-11,8.69,0,3.84,2.28,5.85,5.12,7.11s3.71,2.14,3.71,3.28c0,1.7-2.28,2.57-4.27,2.57a15.48,15.48,0,0,1-6.84-1.43l-1-.43-1,5.84a23.1,23.1,0,0,0,8.11,1.43c7.55,0,12.53-3.56,12.53-9,0-3-1.85-5.26-6.12-7.11-2.57-1.29-4.13-2-4.13-3.28s1.29-2.28,4.13-2.28a13.17,13.17,0,0,1,5.41,1l.71.29,1.16-5.56Z"/><path class="cls-1" d="M78.18.85c-1.7,0-3,.15-3.71,1.85L63.79,26.48h7.7l1.43-4.27H82l.85,4.27h6.85L83.74.85ZM74.91,17.94c.43-1.29,2.84-7.55,2.84-7.55s.56-1.57,1-2.57l.43,2.43s1.43,6.4,1.7,7.83h-6Z"/><path class="cls-2" d="M79.89.85c-1.71,0-3,.15-3.71,1.85L63.79,26.48h7.7l1.43-4.27H82l.85,4.27h6.85L83.74.85Zm-5,17.09c.56-1.43,2.84-7.55,2.84-7.55s.56-1.57,1-2.57l.43,2.43s1.43,6.4,1.7,7.83h-6Z"/><path class="cls-1" d="M19.79,18.79l-.71-3.71c-1.29-4.25-5.41-9-10-11.24l6.4,22.79h7.7L34.74,1H27.05Z"/><path class="cls-2" d="M19.79,18.79l-.71-3.71c-1.29-4.25-5.41-9-10-11.24l6.4,22.79h7.7L34.74,1H28.48Z"/><path class="cls-3" d="M0,.85l1.29.29c9.1,2.14,15.38,7.55,17.79,14L16.53,3C16.09,1.29,14.81.85,13.25.85Z"/><path class="cls-4" d="M0,.85H0C9.11,3,16.65,8.54,19.08,15L16.65,4.83a3.44,3.44,0,0,0-3.4-2.69Z"/><path class="cls-5" d="M0,.85H0C9.11,3,16.65,8.54,19.08,15L17.38,9.4c-.44-1.71-1-3.43-3-4.13Z"/><path class="cls-6" d="M26.92,17.94l-4.84-4.83L19.8,18.52,19.24,15c-1.3-4.27-5.43-9-10-11.24L15.66,26.5h7.69Z"/><polygon class="cls-6" points="40.15 26.48 34.03 20.22 32.89 26.48 40.15 26.48"/><path class="cls-6" d="M56.53,17.65h0c.57.56.85,1,.71,1.57,0,1.71-2.28,2.58-4.27,2.58a15.62,15.62,0,0,1-6.84-1.43l-1-.44-1,5.85a23.34,23.34,0,0,0,8.11,1.43c4.57,0,8.26-1.29,10.39-3.57Z"/><path class="cls-6" d="M64.79,26.48h6.7l1.43-4.27H82l.85,4.27h6.85L87.29,16.09,78.75,7.84l.43,2.28s1.43,6.41,1.7,7.84h-6c.56-1.43,2.84-7.55,2.84-7.55s.56-1.58,1-2.57"/></svg>