<svg xmlns="http://www.w3.org/2000/svg" viewBox="0 0 22.58 22.6"><defs><style>.cls-1{fill:#a5854f;}</style></defs><title>instagram</title><g id="Layer_2" data-name="Layer 2"><g id="Layer_1-2" data-name="Layer 1"><g id="instagram"><path id="Path_487" data-name="Path 487" class="cls-1" d="M22.53,6.64A8.28,8.28,0,0,0,22,3.9,5.82,5.82,0,0,0,18.7.6,8.34,8.34,0,0,0,16,.07C14.75,0,14.36,0,11.3,0S7.84,0,6.64.07A8,8,0,0,0,3.9.59a5.39,5.39,0,0,0-2,1.31,5.45,5.45,0,0,0-1.3,2A8.22,8.22,0,0,0,.07,6.64C0,7.84,0,8.23,0,11.3S0,14.75.06,16A8.34,8.34,0,0,0,.59,18.7,5.8,5.8,0,0,0,3.9,22a8.22,8.22,0,0,0,2.74.52c1.2,0,1.59.07,4.65.07s3.45,0,4.66-.07A8.27,8.27,0,0,0,18.69,22,5.78,5.78,0,0,0,22,18.7,8.28,8.28,0,0,0,22.52,16c.05-1.21.06-1.59.06-4.65s0-3.46-.06-4.66Zm-2,9.22A6.25,6.25,0,0,1,20.1,18,3.75,3.75,0,0,1,18,20.11a6.25,6.25,0,0,1-2.1.39c-1.19.05-1.54.06-4.56.06s-3.38,0-4.56-.07a6,6,0,0,1-2.1-.38A3.68,3.68,0,0,1,2.5,18a6.25,6.25,0,0,1-.39-2.1c0-1.19-.06-1.55-.06-4.56s0-3.38.06-4.57A6.24,6.24,0,0,1,2.5,4.65a3.42,3.42,0,0,1,.85-1.3,3.51,3.51,0,0,1,1.3-.84,6.19,6.19,0,0,1,2.09-.39c1.19-.05,1.55-.07,4.56-.07s3.38,0,4.56.07a6,6,0,0,1,2.1.39,3.47,3.47,0,0,1,1.3.84,3.51,3.51,0,0,1,.84,1.3,6.19,6.19,0,0,1,.39,2.09c.05,1.19.06,1.55.06,4.56s0,3.37-.06,4.56Z"/><path id="Path_488" data-name="Path 488" class="cls-1" d="M11.3,5.49a5.81,5.81,0,1,0,5.8,5.81h0A5.81,5.81,0,0,0,11.3,5.49Zm0,9.57a3.77,3.77,0,1,1,3.76-3.76,3.77,3.77,0,0,1-3.76,3.76Z"/><path id="Path_489" data-name="Path 489" class="cls-1" d="M18.69,5.26a1.36,1.36,0,1,1-2.71,0,1.36,1.36,0,0,1,2.71,0Z"/></g></g></g></svg>