<svg xmlns="http://www.w3.org/2000/svg" viewBox="0 0 27.02 21.96"><defs><style>.cls-1{fill:#a5854f;}</style></defs><title>twitter</title><g id="Layer_2" data-name="Layer 2"><g id="Layer_1-2" data-name="Layer 1"><g id="twitter"><g id="Group_850" data-name="Group 850"><path id="Path_486" data-name="Path 486" class="cls-1" d="M27,2.61a11.44,11.44,0,0,1-3.19.87A5.5,5.5,0,0,0,26.26.41a10.77,10.77,0,0,1-3.51,1.34,5.54,5.54,0,0,0-9.58,3.79A5.29,5.29,0,0,0,13.3,6.8,15.67,15.67,0,0,1,1.88,1a5.54,5.54,0,0,0,1.7,7.4,5.6,5.6,0,0,1-2.5-.68V7.8a5.57,5.57,0,0,0,4.44,5.44,5.49,5.49,0,0,1-1.45.18A4.56,4.56,0,0,1,3,13.33a5.59,5.59,0,0,0,5.17,3.86,11.14,11.14,0,0,1-6.86,2.36A9.79,9.79,0,0,1,0,19.48,15.59,15.59,0,0,0,8.5,22,15.66,15.66,0,0,0,24.26,6.41V6.2c0-.24,0-.48,0-.72A11.16,11.16,0,0,0,27,2.61Z"/></g></g></g></g></svg>