<svg id="Layer_1" data-name="Layer 1" xmlns="http://www.w3.org/2000/svg" viewBox="0 0 26.37 22.95"><defs><style>.cls-1{fill:#fff;}</style></defs><title>cart-icon-white</title><path class="cls-1" d="M7.44,15.32H23.36l3-12H4.74L3.9,0H0V1.13H3L6.49,14.68,5.86,16A2.2,2.2,0,0,0,6,18.11,2.29,2.29,0,0,0,7,19a2.5,2.5,0,0,0-.5,1.49,2.47,2.47,0,0,0,4.94,0,2.53,2.53,0,0,0-.39-1.34h5.65a2.47,2.47,0,1,0,4.55,1.34,2.53,2.53,0,0,0-.39-1.34H22.7V18H7.83a1,1,0,0,1-.9-.51,1,1,0,0,1,0-1ZM18.8,19.14a1.34,1.34,0,1,1-1.34,1.34A1.34,1.34,0,0,1,18.8,19.14Zm-9.8,0a1.34,1.34,0,1,1-1.34,1.34A1.34,1.34,0,0,1,9,19.14ZM5,4.4H24.92l-2.45,9.79H7.53Z"/></svg>