<svg id="Layer_1" data-name="Layer 1" xmlns="http://www.w3.org/2000/svg" viewBox="0 0 29.07 25.31"><defs><style>.cls-1{fill:#a5854f;}</style></defs><title>cart-icon-brown</title><path class="cls-1" d="M8.21,16.89H25.76L29.07,3.61H5.22L4.3,0H0V1.25H3.34L7.16,16.19l-.7,1.4A2.41,2.41,0,0,0,6.57,20a2.5,2.5,0,0,0,1.18,1,2.76,2.76,0,0,0-.55,1.64,2.73,2.73,0,1,0,5.45,0,2.76,2.76,0,0,0-.43-1.48h6.22A2.76,2.76,0,0,0,18,22.58a2.73,2.73,0,1,0,5.45,0A2.76,2.76,0,0,0,23,21.1h2V19.86H8.64a1.16,1.16,0,0,1-1-.56,1.18,1.18,0,0,1-.06-1.15ZM20.73,21.1a1.48,1.48,0,1,1-1.48,1.48A1.49,1.49,0,0,1,20.73,21.1Zm-10.81,0a1.48,1.48,0,1,1-1.47,1.48A1.48,1.48,0,0,1,9.92,21.1ZM5.55,4.86H27.48l-2.7,10.78H8.3Z"/></svg>