<svg width="198" height="31" viewBox="0 0 198 31" fill="none" xmlns="http://www.w3.org/2000/svg">
<path d="M12.3586 17.4677C12.6347 18.02 12.7038 18.6414 12.7038 19.4009C12.7038 20.3675 12.4276 21.196 11.9443 21.8864C11.392 22.6459 10.7016 23.1982 9.73497 23.6125C8.83742 24.0267 7.73274 24.2339 6.55902 24.2339C5.10913 24.2339 3.79733 23.9577 2.69265 23.4053C1.51893 22.853 0.621381 22.1626 0 21.265L1.72606 19.7461C2.34744 20.5056 3.1069 21.0579 3.93541 21.4722C4.76392 21.8864 5.73051 22.0935 6.76615 22.0935C7.31849 22.0935 7.80178 22.0245 8.21604 21.8864C8.63029 21.7483 9.04454 21.6102 9.32071 21.3341C9.66593 21.1269 9.87305 20.7817 10.0802 20.5056C10.2183 20.1604 10.3563 19.8151 10.3563 19.4699C10.3563 18.7795 10.0111 18.1581 9.38976 17.6748C9.11359 17.4677 8.69933 17.2606 8.21604 17.0535C7.6637 16.8463 7.04232 16.6392 6.35189 16.4321C5.17817 16.0869 4.14254 15.7416 3.31403 15.3964C2.48552 15.0512 1.86414 14.637 1.44989 14.1537C1.10468 13.7394 0.89755 13.3252 0.690423 12.9109C0.552339 12.4276 0.414254 11.9443 0.414254 11.392C0.414254 10.7016 0.552339 10.0802 0.828508 9.4588C1.10468 8.90646 1.51893 8.35412 2.07127 7.93987C2.62361 7.52561 3.24499 7.1804 3.93541 6.90423C4.62584 6.6971 5.45434 6.55902 6.28285 6.55902C7.11136 6.55902 7.87082 6.6971 8.63029 6.90423C9.38976 7.11136 10.1492 7.45657 10.7706 7.87082C11.461 8.28508 12.0134 8.76837 12.4967 9.32071L11.1158 11.0468C10.7016 10.6325 10.2873 10.2183 9.73497 9.87305C9.25167 9.52784 8.69933 9.25167 8.14699 9.04454C7.59466 8.83742 7.04232 8.76837 6.42094 8.76837C5.93764 8.76837 5.45434 8.83742 4.97105 8.9755C4.55679 9.11359 4.14254 9.25167 3.86637 9.52784C3.52116 9.73497 3.31403 10.0111 3.17595 10.3563C3.03786 10.7016 2.89978 11.0468 2.89978 11.392C2.89978 11.7372 2.96882 12.0134 3.1069 12.2895C3.24499 12.5657 3.45212 12.7728 3.65924 12.98C3.93541 13.1871 4.41871 13.4633 4.902 13.6704C5.45434 13.8775 6.14477 14.0846 6.97327 14.2918C7.93987 14.5679 8.69933 14.8441 9.38976 15.0512C10.0802 15.3274 10.5635 15.6726 11.0468 16.0178C11.6682 16.363 12.0824 16.9154 12.3586 17.4677ZM37.6281 7.45657C36.7996 6.97327 35.833 6.6971 34.5902 6.6971C33.8998 6.6971 33.2094 6.76615 32.588 6.97327C31.8976 7.1804 31.3452 7.45657 30.7929 7.80178C30.2405 8.14699 29.7572 8.56125 29.343 9.04454C28.9287 9.4588 28.6526 9.94209 28.4454 10.3563C28.2383 9.66592 27.9621 9.04454 27.6169 8.56125C27.1336 7.87082 26.5123 7.38753 25.8218 7.04232C25.1314 6.76615 24.3029 6.62806 23.4744 6.62806C22.7149 6.62806 22.0245 6.6971 21.4031 6.90423C20.7127 7.11136 20.0913 7.38753 19.539 7.80178C18.9866 8.21604 18.5033 8.63029 18.0891 9.18263C17.882 9.38975 17.8129 9.73497 17.6748 9.94209L17.6058 6.90423H15.1893V23.7506H17.6748V13.6704C17.6748 13.049 17.8129 12.4276 18.02 11.8753C18.2962 11.3229 18.6414 10.8396 19.0557 10.3563C19.4699 9.94209 20.0223 9.59688 20.6437 9.32071C21.265 9.04454 21.8864 8.9755 22.6459 8.9755C23.4744 8.9755 24.1648 9.18263 24.7171 9.52784C25.2695 9.87305 25.6837 10.4254 25.9599 11.1158C26.2361 11.8062 26.3742 12.7038 26.3742 13.8085V23.8886H28.8597V13.6704C28.8597 13.049 28.9978 12.4276 29.2049 11.8753C29.4811 11.3229 29.8263 10.8396 30.2405 10.3563C30.6548 9.94209 31.2071 9.59688 31.8285 9.32071C32.4499 9.11359 33.1403 8.9755 33.8307 8.9755C34.6592 8.9755 35.3497 9.18263 35.902 9.52784C36.4543 9.87305 36.8686 10.4254 37.1448 11.1158C37.4209 11.8062 37.559 12.7728 37.559 13.8775V23.9577H40.0445V13.7394C40.0445 12.1514 39.8374 10.8396 39.4232 9.80401C39.0089 8.76837 38.4566 8.00891 37.6281 7.45657ZM56.2695 7.04232H58.686V23.8886H56.2004V20.7127C56.1314 20.8508 56.0624 21.0579 55.9933 21.196C55.5791 21.8174 55.0267 22.3007 54.4053 22.784C53.784 23.2673 53.0935 23.6125 52.3341 23.8196C51.5746 24.0958 50.7461 24.2339 49.9176 24.2339C48.4677 24.2339 47.1559 23.8196 45.9131 23.0601C44.7394 22.3007 43.7728 21.265 43.0824 19.9532C42.392 18.6414 42.0468 17.1225 42.0468 15.4655C42.0468 13.7394 42.392 12.2895 43.0824 10.9087C43.7728 9.59688 44.7394 8.56125 45.9131 7.80178C47.0869 7.04232 48.4677 6.6971 49.9176 6.6971C50.8151 6.6971 51.6437 6.83519 52.4031 7.11136C53.1626 7.38753 53.853 7.73274 54.4053 8.21603C55.0267 8.69933 55.51 9.18263 55.9243 9.80401C55.9933 9.94209 55.9933 10.0111 56.0624 10.1492L56.2695 7.04232ZM56.4076 15.4655C56.4076 14.2227 56.1314 13.118 55.6481 12.1514C55.1648 11.1849 54.4744 10.4254 53.5768 9.87305C52.6793 9.32071 51.7127 9.04454 50.539 9.04454C49.3653 9.04454 48.3987 9.32071 47.5011 9.87305C46.6036 10.4254 45.9131 11.1849 45.4298 12.1514C44.9466 13.118 44.6704 14.2227 44.6704 15.4655C44.6704 16.7082 44.9466 17.8129 45.4298 18.7795C45.9131 19.7461 46.6036 20.5056 47.5011 21.0579C48.3987 21.6102 49.3653 21.8864 50.539 21.8864C51.6437 21.8864 52.6793 21.6102 53.5768 21.0579C54.4744 20.5056 55.1648 19.7461 55.6481 18.7795C56.1314 17.8129 56.4076 16.7082 56.4076 15.4655ZM62.2071 23.8886H64.6236V0H62.2071V23.8886ZM68.1448 23.8886H70.5612V0H68.1448V23.8886ZM80.5724 7.73274C81.1247 7.1804 81.8151 6.6971 82.5746 6.42094C83.3341 6.07572 84.1626 5.93764 84.9911 5.93764C85.6815 5.93764 86.3029 6.00668 86.9243 6.21381C87.5457 6.42094 88.098 6.6971 88.5813 7.04232C89.0646 7.38753 89.5479 7.80178 90.0312 8.28508L93.4143 4.41871C92.7929 3.65924 91.9644 3.03786 91.1359 2.48552C90.2383 1.93318 89.2717 1.51893 88.2361 1.24276C87.2005 0.966592 86.1648 0.828508 85.0601 0.828508C83.3341 0.828508 81.7461 1.10468 80.2962 1.72606C78.8463 2.2784 77.6036 3.1069 76.4989 4.14254C75.4633 5.17817 74.5657 6.42094 74.0134 7.87082C73.392 9.32071 73.1158 10.8396 73.1158 12.4967C73.1158 14.2227 73.392 15.8107 73.9443 17.2606C74.4967 18.7105 75.3252 19.9532 76.3608 20.9889C77.3964 22.0245 78.6392 22.853 80.0891 23.4053C81.539 23.9577 83.0579 24.2339 84.784 24.2339C85.8886 24.2339 86.9933 24.0958 88.029 23.8196C89.1336 23.5434 90.1002 23.1982 90.9978 22.7149C91.8953 22.2316 92.5857 21.6793 93.1381 21.1269L90.5145 16.9154C90.1002 17.3296 89.6169 17.7439 89.1336 18.0891C88.5813 18.4343 88.029 18.7105 87.4076 18.8486C86.7862 19.0557 86.0958 19.1247 85.4053 19.1247C84.3697 19.1247 83.4722 18.9866 82.6437 18.6414C81.8151 18.3653 81.1247 17.882 80.5033 17.3296C79.951 16.7773 79.4677 16.0869 79.1225 15.2584C78.7773 14.4298 78.6392 13.5323 78.6392 12.5657C78.6392 11.5301 78.7773 10.6325 79.1225 9.80401C79.6058 8.9755 80.02 8.28508 80.5724 7.73274ZM108.673 7.1804C107.775 6.62806 106.67 6.42094 105.428 6.42094C104.461 6.42094 103.563 6.62806 102.735 6.97327C101.906 7.38753 101.147 7.87082 100.526 8.4922C100.457 8.56125 100.388 8.69933 100.249 8.83742V0H95.2094V23.8886H96.245H97.7639H100.318V13.6013C100.318 13.1871 100.388 12.8419 100.595 12.4967C100.733 12.1514 101.009 11.8753 101.285 11.5991C101.561 11.3229 101.906 11.1158 102.321 10.9777C102.735 10.8396 103.149 10.7706 103.563 10.7706C104.116 10.7706 104.668 10.8396 105.013 11.0468C105.428 11.2539 105.704 11.5991 105.911 12.0824C106.118 12.5657 106.187 13.118 106.187 13.8085V23.8886H111.365V13.3942C111.365 11.8753 111.158 10.6325 110.675 9.59688C110.192 8.4922 109.501 7.73274 108.673 7.1804ZM130.49 10.7016C131.318 12.0134 131.664 13.5323 131.664 15.2584C131.664 16.9844 131.249 18.5033 130.49 19.8151C129.661 21.1269 128.626 22.2316 127.245 22.9911C125.864 23.7506 124.276 24.1648 122.481 24.1648C120.686 24.1648 119.098 23.7506 117.717 22.9911C116.336 22.2316 115.232 21.1269 114.403 19.8151C113.575 18.5033 113.16 16.9844 113.16 15.2584C113.16 13.5323 113.575 12.0134 114.403 10.7016C115.232 9.38975 116.336 8.28508 117.717 7.52561C119.098 6.76615 120.686 6.35189 122.481 6.35189C124.276 6.35189 125.864 6.76615 127.245 7.52561C128.626 8.35412 129.661 9.38975 130.49 10.7016ZM126.416 15.3274C126.416 14.4989 126.278 13.6704 125.933 13.049C125.588 12.3586 125.105 11.8062 124.483 11.461C123.862 11.0468 123.172 10.9087 122.412 10.9087C121.653 10.9087 120.962 11.1158 120.341 11.461C119.719 11.8753 119.236 12.3586 118.891 13.049C118.546 13.7394 118.408 14.4989 118.408 15.3274C118.408 16.1559 118.546 16.9844 118.891 17.6058C119.236 18.2962 119.719 18.7795 120.341 19.1938C120.962 19.608 121.653 19.7461 122.412 19.7461C123.172 19.7461 123.862 19.539 124.483 19.1938C125.105 18.7795 125.588 18.2962 125.933 17.6058C126.278 16.9154 126.416 16.1559 126.416 15.3274ZM150.65 10.7016C151.341 12.0134 151.617 13.5323 151.617 15.3274C151.617 17.0535 151.272 18.5724 150.65 19.8842C149.96 21.196 149.062 22.3007 147.958 23.0601C146.784 23.8196 145.472 24.2339 144.022 24.2339C143.056 24.2339 142.158 24.0267 141.261 23.6815C140.363 23.3363 139.604 22.853 139.051 22.1626V31H133.873V6.76615H138.775L138.844 8.69933C138.913 8.63029 138.982 8.4922 139.051 8.42316C139.604 7.87082 140.363 7.38753 141.261 7.04232C142.158 6.6971 143.125 6.48998 144.091 6.48998C145.541 6.48998 146.853 6.90423 148.027 7.6637C149.131 8.35412 150.029 9.38975 150.65 10.7016ZM146.577 15.3274C146.577 14.4298 146.439 13.6013 146.094 12.98C145.748 12.2895 145.334 11.8062 144.782 11.392C144.229 11.0468 143.539 10.8396 142.71 10.8396C141.882 10.8396 141.192 11.0468 140.639 11.392C140.087 11.7372 139.604 12.2895 139.258 12.98C138.913 13.6704 138.775 14.4989 138.775 15.3964C138.775 16.294 138.913 17.1225 139.258 17.8129C139.604 18.5033 140.018 18.9866 140.639 19.4009C141.192 19.7461 141.882 19.9532 142.71 19.9532C143.47 19.9532 144.16 19.7461 144.713 19.4009C145.265 19.0557 145.748 18.5033 146.094 17.8129C146.439 17.0535 146.577 16.2249 146.577 15.3274ZM165.702 15.7416C165.287 15.2584 164.666 14.8441 163.976 14.4989C163.216 14.1537 162.388 13.8085 161.352 13.5323C160.523 13.3252 159.902 13.118 159.419 12.9109C158.935 12.7728 158.59 12.6347 158.383 12.4967C158.176 12.3586 157.969 12.2205 157.9 12.0134C157.762 11.8062 157.693 11.5991 157.693 11.392C157.693 11.1849 157.762 10.9777 157.831 10.8396C157.9 10.7016 158.038 10.5635 158.245 10.4254C158.383 10.2873 158.659 10.2183 158.866 10.1492C159.143 10.0802 159.419 10.0802 159.695 10.0802C160.109 10.0802 160.592 10.1492 161.145 10.3563C161.628 10.4944 162.18 10.7706 162.664 11.0468C163.147 11.3229 163.561 11.6682 163.976 12.0134L166.668 8.9755C166.116 8.42316 165.425 7.93987 164.666 7.59465C163.906 7.1804 163.147 6.90423 162.249 6.6971C161.421 6.48998 160.454 6.35189 159.557 6.35189C158.659 6.35189 157.831 6.48998 157.002 6.6971C156.174 6.97327 155.414 7.31849 154.793 7.80178C154.171 8.28508 153.619 8.83742 153.274 9.4588C152.929 10.0802 152.722 10.8396 152.722 11.5991C152.722 12.2895 152.86 12.9109 153.067 13.4633C153.274 14.0156 153.619 14.4989 154.102 14.9822C154.586 15.4655 155.207 15.8797 155.898 16.2249C156.657 16.5702 157.486 16.9154 158.521 17.1225C159.212 17.3296 159.833 17.4677 160.247 17.6058C160.731 17.7439 161.007 17.882 161.214 18.02C161.628 18.2272 161.766 18.5724 161.766 18.9866C161.766 19.1938 161.697 19.4009 161.628 19.539C161.559 19.6771 161.421 19.8151 161.283 19.9532C161.145 20.0913 160.938 20.1604 160.661 20.2294C160.454 20.2984 160.178 20.2984 159.833 20.2984C159.074 20.2984 158.314 20.1604 157.416 19.8151C156.588 19.4699 155.829 18.9866 155.138 18.3653L152.031 21.0579C152.791 21.9555 153.826 22.7149 155.069 23.1982C156.381 23.7506 157.831 24.0267 159.488 24.0267C160.869 24.0267 162.111 23.7506 163.147 23.2673C164.252 22.784 165.08 22.0935 165.702 21.265C166.323 20.4365 166.599 19.4699 166.599 18.3653C166.599 17.8129 166.53 17.2606 166.323 16.7773C166.254 16.5011 166.047 16.0869 165.702 15.7416ZM190.004 13.8775C189.728 13.7394 189.452 13.6704 189.107 13.6704C188.762 13.6704 188.486 13.7394 188.209 13.9465C187.933 14.0846 187.726 14.3608 187.588 14.637C187.45 14.9131 187.381 15.2584 187.381 15.6036C187.381 15.9488 187.45 16.294 187.588 16.6392C187.726 16.9154 187.933 17.1225 188.209 17.3296C188.486 17.4677 188.762 17.5367 189.107 17.5367C189.452 17.5367 189.797 17.4677 190.004 17.3296C190.281 17.1915 190.488 16.9154 190.626 16.6392C190.764 16.363 190.833 16.0178 190.833 15.6036C190.833 15.2584 190.764 14.9131 190.626 14.5679C190.488 14.2918 190.281 14.0156 190.004 13.8775ZM197.116 15.3274C197.116 22.5768 191.247 28.4454 183.998 28.4454C176.748 28.4454 170.88 22.5768 170.88 15.3274C170.88 8.07795 176.748 2.20935 183.998 2.20935C191.247 2.20935 197.116 8.07795 197.116 15.3274ZM177.232 17.951C177.232 17.6058 177.163 17.3296 176.955 17.1915C176.748 16.9844 176.541 16.9154 176.196 16.9154C175.92 16.9154 175.644 16.9844 175.437 17.1915C175.229 17.3987 175.16 17.6748 175.16 17.951C175.16 18.2962 175.229 18.5724 175.437 18.7795C175.644 18.9866 175.851 19.0557 176.196 19.0557C176.472 19.0557 176.748 18.9866 176.955 18.7795C177.094 18.5724 177.232 18.2962 177.232 17.951ZM184.55 14.8441C184.55 14.2227 184.481 13.7394 184.274 13.3252C184.136 12.9109 183.86 12.6347 183.514 12.4276C183.169 12.2205 182.755 12.1514 182.272 12.1514C181.927 12.1514 181.581 12.2205 181.236 12.3586C180.891 12.4967 180.615 12.7038 180.408 12.98C180.339 13.049 180.339 13.1871 180.27 13.2561L180.2 12.2895H178.474V18.9866H178.889H179.441H180.339V14.9822C180.339 14.7751 180.408 14.637 180.477 14.4989C180.546 14.3608 180.615 14.2227 180.753 14.0846C180.891 13.9465 181.029 13.8775 181.167 13.8085C181.305 13.7394 181.512 13.7394 181.719 13.7394C181.996 13.7394 182.203 13.7394 182.341 13.8775C182.479 13.9465 182.617 14.0846 182.755 14.2918C182.824 14.4989 182.893 14.7751 182.893 15.0512V18.9866H184.688V14.8441H184.55ZM192.559 12.2205H190.833V13.049C190.764 12.98 190.695 12.8419 190.626 12.7728C190.488 12.6347 190.281 12.4967 190.074 12.4276C189.866 12.2895 189.659 12.2205 189.452 12.1514C189.245 12.0824 188.969 12.0824 188.693 12.0824C188.071 12.0824 187.519 12.2205 187.105 12.4967C186.621 12.7728 186.276 13.1871 186 13.7394C185.724 14.2227 185.586 14.8441 185.586 15.5345C185.586 16.2249 185.724 16.7773 186 17.2606C186.276 17.7439 186.69 18.1581 187.105 18.4343C187.588 18.7105 188.14 18.8486 188.762 18.8486C189.107 18.8486 189.452 18.7795 189.797 18.6414C190.143 18.5033 190.419 18.2962 190.626 18.0891C190.695 18.02 190.695 17.951 190.764 17.882V18.4343C190.764 18.8486 190.695 19.1938 190.557 19.4699C190.419 19.7461 190.212 19.9532 189.935 20.0913C189.659 20.2294 189.314 20.2984 188.831 20.2984C188.555 20.2984 188.347 20.2984 188.071 20.2294C187.864 20.1604 187.588 20.0913 187.381 20.0223C187.174 19.9532 186.967 19.8151 186.829 19.6771L186.207 20.9198C186.552 21.196 186.967 21.4031 187.45 21.5412C187.933 21.6793 188.486 21.7483 189.038 21.7483C189.59 21.7483 190.074 21.6793 190.488 21.5412C190.902 21.4031 191.316 21.196 191.592 20.8508C191.869 20.5746 192.145 20.2294 192.283 19.8151C192.421 19.4009 192.49 18.9176 192.49 18.3653V12.2205H192.559Z" fill="#664F3C"/>
</svg>
