<svg xmlns="http://www.w3.org/2000/svg" viewBox="0 0 22.27 20.29"><defs><style>.cls-1{fill:#a5854f;}</style></defs><title>right-arrow-brown</title><g id="Layer_2" data-name="Layer 2"><g id="Layer_1-2" data-name="Layer 1"><path class="cls-1" d="M0,10.15a1,1,0,0,0,1,.95H19l-7.58,7.57A1,1,0,0,0,12.8,20L22,10.82a.57.57,0,0,0,.12-.15.25.25,0,0,0,0-.07.41.41,0,0,0,.05-.09l0-.1a.19.19,0,0,0,0-.08.77.77,0,0,0,0-.37.24.24,0,0,0,0-.08l0-.1a.41.41,0,0,0-.05-.09.25.25,0,0,0,0-.07A.79.79,0,0,0,22,9.47L12.8.28a1,1,0,0,0-1.35,0,1,1,0,0,0,0,1.34L19,9.19H1A1,1,0,0,0,0,10.15Z"/></g></g></svg>