<svg width="112" height="158" viewBox="0 0 112 158" fill="none" xmlns="http://www.w3.org/2000/svg">
<path d="M73.7516 83.5123H62.3018V0H73.7516C80.0669 0 85.2015 5.16087 85.2015 11.5085V71.9762C85.229 78.3238 80.0669 83.5123 73.7516 83.5123ZM69.0014 76.7507H73.7516C76.3601 76.7507 78.5018 74.5981 78.5018 71.9762V11.5085C78.5018 8.88664 76.3601 6.73397 73.7516 6.73397H69.0014V76.7507Z" fill="#73C43D"/>
<path d="M100.248 84.0091C93.768 84.0091 88.4961 78.7102 88.4961 72.197V24.0381H95.1958V72.197C95.1958 74.9845 97.4473 77.2751 100.248 77.2751C101.593 77.2751 102.884 76.7507 103.817 75.7848C104.779 74.8189 105.3 73.5494 105.273 72.1694V66.6498H111.972V72.1694C112 75.3156 110.764 78.2962 108.54 80.5593C106.371 82.7672 103.406 84.0091 100.248 84.0091Z" fill="#73C43D"/>
<path d="M88.4961 66.6498V11.8121C88.4961 5.29886 93.768 0 100.248 0C106.728 0 112 5.29886 112 11.8121V42.2253C112 48.9593 108.375 55.2241 102.554 58.5635L88.4961 66.6498ZM100.248 6.76157C97.4748 6.76157 95.1958 9.02463 95.1958 11.8397V55.0585L99.2321 52.7403C102.966 50.5876 105.3 46.5859 105.3 42.2529V11.8121C105.3 9.02463 103.021 6.76157 100.248 6.76157Z" fill="#73C43D"/>
<path d="M32.1803 83.5123H25.4532V9.76978C25.4532 8.11389 24.1077 6.73397 22.4328 6.73397C20.7579 6.73397 19.4125 8.08629 19.4125 9.76978V83.4847H12.7402V9.76978C12.7402 4.38812 17.0786 0 22.4603 0C27.842 0 32.1803 4.38812 32.1803 9.76978V83.5123Z" fill="#73C43D"/>
<path d="M19.4401 83.5123H12.7404V9.76978C12.7404 8.11389 11.395 6.73397 9.72003 6.73397C8.07257 6.73397 6.69968 8.08629 6.69968 9.76978V83.4847H0V9.76978C0 4.38812 4.36578 0 9.72003 0C15.0743 0 19.4401 4.38812 19.4401 9.76978V83.5123Z" fill="#73C43D"/>
<path d="M58.7044 79.5934H52.0047V11.5085C52.0047 10.239 51.5105 9.02463 50.6044 8.14148C49.7258 7.25834 48.5451 6.76157 47.282 6.73397C46.0739 6.73397 44.8932 7.23074 43.9871 8.11389C43.0535 9.05223 42.5044 10.3493 42.5044 11.6465V19.0428H35.8047V11.6741C35.8047 8.58306 37.0677 5.54725 39.2644 3.36699C41.4061 1.18672 44.2342 0 47.2271 0C47.2546 0 47.282 0 47.3095 0C50.3298 0.0275983 53.1854 1.21432 55.3271 3.36699C57.4963 5.54725 58.677 8.44507 58.677 11.5085V79.5934H58.7044Z" fill="#73C43D"/>
<path d="M58.7045 83.5124H47.2272C40.9119 83.5124 35.7773 78.3515 35.7773 72.0039V42.4737C35.7773 35.8502 39.2919 29.6406 44.9757 26.2736L58.7045 18.1045V83.5124ZM51.9774 29.9441L48.3804 32.0968C44.756 34.2495 42.477 38.2512 42.477 42.4737V71.9763C42.477 74.5981 44.6187 76.7508 47.2272 76.7508H51.9774V29.9441Z" fill="#73C43D"/>
<path d="M5.93077 157.752L1.31787 143.98L4.58534 143.952L7.6606 153.777L7.08399 153.722L10.4064 146.05H12.3284L15.7332 153.722L15.0742 153.805L18.1769 143.98H21.4444L16.804 157.752H14.525L11.0104 149.5L11.5047 149.555L8.1823 157.752H5.93077Z" fill="#C69C72"/>
<path d="M24.6846 141.055C24.0531 141.055 23.5314 140.889 23.2019 140.585C22.8449 140.254 22.6802 139.813 22.6802 139.206C22.6802 138.654 22.8724 138.184 23.2293 137.853C23.5863 137.494 24.0805 137.329 24.712 137.329C25.371 137.329 25.8653 137.494 26.2222 137.798C26.5792 138.129 26.7439 138.598 26.7439 139.206C26.7439 139.758 26.5517 140.199 26.1948 140.53C25.8378 140.889 25.3161 141.055 24.6846 141.055ZM23.1195 143.98H26.3046V157.752H23.1195V143.98Z" fill="#C69C72"/>
<path d="M28.1167 143.98H37.013V146.961H28.1167V143.98ZM30.8076 140.475H33.9926V157.752H30.8076V140.475Z" fill="#C69C72"/>
<path d="M38.4136 157.752V138.433H41.5712V146.823L40.9671 147.126C41.1319 146.492 41.4888 145.94 41.9831 145.415C42.4773 144.891 43.0814 144.477 43.7678 144.173C44.4543 143.87 45.1682 143.704 45.9095 143.704C46.9529 143.704 47.8316 143.925 48.518 144.339C49.2319 144.753 49.7536 145.388 50.1106 146.216C50.4675 147.044 50.6323 148.092 50.6323 149.362V157.779H47.4472V149.583C47.4472 148.893 47.3373 148.313 47.1726 147.844C46.9804 147.375 46.6783 147.044 46.2939 146.823C45.8821 146.602 45.4153 146.492 44.8387 146.519C44.3719 146.519 43.9326 146.602 43.5482 146.74C43.1638 146.878 42.8068 147.099 42.5322 147.375C42.2577 147.651 42.0105 147.954 41.8458 148.313C41.681 148.672 41.5987 149.031 41.5987 149.472V157.779H40.0061H39.1275H38.4136V157.752Z" fill="#C69C72"/>
<path d="M65.6789 158C64.3884 158 63.2352 157.696 62.2192 157.062C61.2033 156.427 60.3796 155.571 59.803 154.495C59.2264 153.419 58.9243 152.204 58.9243 150.824C58.9243 149.472 59.2264 148.258 59.803 147.154C60.3796 146.078 61.2033 145.222 62.2192 144.587C63.2352 143.953 64.3884 143.649 65.6789 143.649C66.9145 143.649 68.0128 143.897 69.0288 144.366C70.0447 144.836 70.8135 145.498 71.3627 146.326L69.6054 148.479C69.3582 148.12 69.0288 147.789 68.6169 147.485C68.205 147.182 67.7932 146.961 67.3538 146.768C66.9145 146.602 66.4477 146.519 66.0084 146.519C65.2396 146.519 64.5531 146.712 63.9765 147.071C63.3725 147.457 62.9057 147.954 62.5487 148.617C62.1918 149.279 62.027 149.997 62.027 150.824C62.027 151.652 62.1918 152.37 62.5487 153.032C62.9057 153.695 63.3725 154.191 64.004 154.578C64.6081 154.964 65.2945 155.157 66.0359 155.157C66.4752 155.157 66.9145 155.075 67.3538 154.937C67.7657 154.799 68.1776 154.578 68.562 154.302C68.9464 154.026 69.3033 153.667 69.6328 153.253L71.3901 155.433C70.786 156.206 69.9898 156.813 68.9464 157.31C67.903 157.779 66.8047 158 65.6789 158Z" fill="#C69C72"/>
<path d="M77.9527 158C76.8269 158 75.811 157.696 74.8774 157.062C73.9438 156.427 73.2299 155.571 72.6533 154.495C72.1042 153.419 71.8296 152.177 71.8296 150.824C71.8296 149.445 72.1042 148.23 72.6533 147.154C73.2025 146.078 73.9713 145.222 74.9048 144.615C75.8659 144.008 76.9367 143.704 78.1174 143.704C78.8038 143.704 79.4354 143.814 80.012 144.008C80.5886 144.201 81.0828 144.504 81.5222 144.863C81.9615 145.222 82.3184 145.636 82.593 146.105C82.8676 146.574 83.0872 147.071 83.1696 147.623L82.4832 147.43V143.98H85.6957V157.752H82.4557V154.467L83.1971 154.329C83.0872 154.799 82.8676 155.268 82.5381 155.709C82.2086 156.151 81.8242 156.537 81.33 156.896C80.8632 157.227 80.314 157.503 79.7374 157.724C79.2157 157.917 78.6116 158 77.9527 158ZM78.8313 155.157C79.5727 155.157 80.2316 154.964 80.8083 154.605C81.3849 154.247 81.8242 153.722 82.1537 153.088C82.4832 152.425 82.6205 151.68 82.6205 150.824C82.6205 149.997 82.4557 149.251 82.1537 148.617C81.8242 147.982 81.3849 147.457 80.8083 147.099C80.2316 146.74 79.5727 146.547 78.8313 146.547C78.0899 146.547 77.431 146.74 76.8818 147.099C76.3052 147.457 75.8659 147.982 75.5638 148.617C75.2618 149.251 75.0971 149.997 75.0971 150.824C75.0971 151.68 75.2618 152.425 75.5638 153.088C75.8659 153.75 76.3052 154.247 76.8818 154.605C77.431 154.992 78.0899 155.157 78.8313 155.157Z" fill="#C69C72"/>
<path d="M88.4141 157.752V143.98H91.5717L91.6266 148.368L91.1598 147.375C91.352 146.685 91.6815 146.05 92.1483 145.498C92.6151 144.946 93.1642 144.504 93.7683 144.173C94.3724 143.842 95.0314 143.704 95.7178 143.704C96.0198 143.704 96.2944 143.732 96.569 143.787C96.8436 143.842 97.0632 143.897 97.228 143.98L96.3768 147.513C96.1846 147.402 95.9649 147.319 95.6629 147.264C95.3883 147.209 95.1137 147.154 94.8392 147.154C94.3998 147.154 93.988 147.237 93.6036 147.402C93.2192 147.568 92.8622 147.789 92.5876 148.092C92.2856 148.396 92.0659 148.727 91.9012 149.113C91.7364 149.5 91.6541 149.941 91.6541 150.438V157.779H88.4141V157.752Z" fill="#C69C72"/>
<path d="M104.174 158C102.747 158 101.456 157.696 100.358 157.089C99.2595 156.482 98.4083 155.654 97.7768 154.605C97.1728 153.557 96.8433 152.342 96.8433 150.99C96.8433 149.914 97.008 148.92 97.365 148.037C97.7219 147.154 98.1887 146.381 98.8202 145.719C99.4243 145.056 100.166 144.56 101.017 144.201C101.868 143.842 102.802 143.677 103.845 143.677C104.751 143.677 105.575 143.842 106.371 144.201C107.14 144.56 107.826 145.029 108.403 145.636C108.98 146.243 109.419 146.961 109.721 147.789C110.023 148.617 110.16 149.527 110.16 150.493L110.133 151.625H99.0399L98.4358 149.417H107.442L107.03 149.859V149.279C106.975 148.727 106.81 148.258 106.508 147.844C106.206 147.43 105.849 147.099 105.383 146.878C104.916 146.63 104.422 146.519 103.872 146.519C103.021 146.519 102.307 146.685 101.731 147.016C101.154 147.347 100.715 147.816 100.413 148.451C100.111 149.058 99.9734 149.831 99.9734 150.769C99.9734 151.652 100.166 152.425 100.523 153.088C100.907 153.75 101.429 154.247 102.115 154.605C102.802 154.964 103.598 155.13 104.531 155.13C105.163 155.13 105.767 155.019 106.289 154.826C106.838 154.605 107.414 154.247 108.019 153.695L109.611 155.903C109.144 156.344 108.623 156.703 108.019 157.006C107.414 157.31 106.783 157.558 106.124 157.724C105.465 157.917 104.806 158 104.174 158Z" fill="#C69C72"/>
<path d="M7.77061 107.688L3.15771 93.9168L6.45264 93.8892L9.50045 103.714L8.92383 103.659L12.2737 95.9866H14.1957L17.6005 103.659L16.914 103.742L20.0168 93.9168H23.2842L18.6713 107.688H16.3649L12.8503 99.4364L13.3445 99.4916L10.0221 107.688H7.77061Z" fill="#73C43D"/>
<path d="M26.5239 90.9914C25.8924 90.9914 25.3707 90.8258 25.0412 90.5222C24.6843 90.191 24.5195 89.7495 24.5195 89.1423C24.5195 88.5903 24.7117 88.1212 25.0687 87.79C25.4256 87.4312 25.9199 87.2656 26.5514 87.2656C27.2104 87.2656 27.7046 87.4312 28.0616 87.7348C28.4185 88.066 28.5833 88.5351 28.5833 89.1423C28.5833 89.6943 28.3911 90.1358 28.0341 90.467C27.6772 90.8258 27.1829 90.9914 26.5239 90.9914ZM24.9863 93.9168H28.1714V107.688H24.9863V93.9168Z" fill="#73C43D"/>
<path d="M29.9565 93.9168H38.8528V96.8975H29.9565V93.9168ZM32.6749 90.4119H35.86V107.688H32.6749V90.4119Z" fill="#73C43D"/>
<path d="M40.2529 107.688V88.3696H43.4106V96.7595L42.8065 97.0631C42.9712 96.4283 43.3282 95.8764 43.8224 95.352C44.3167 94.8276 44.9207 94.4136 45.6072 94.1101C46.2936 93.8065 47.0075 93.6409 47.7489 93.6409C48.7923 93.6409 49.6709 93.8617 50.3574 94.2757C51.0713 94.6896 51.593 95.3244 51.9499 96.1523C52.3069 96.9803 52.4716 98.029 52.4716 99.2985V107.716H49.2865V99.5469C49.2865 98.857 49.1767 98.2774 49.0119 97.8082C48.8197 97.3391 48.5177 97.0079 48.1333 96.7871C47.7214 96.5663 47.2546 96.4559 46.678 96.4835C46.2113 96.4835 45.7719 96.5663 45.3875 96.7043C45.0031 96.8423 44.6462 97.0631 44.3716 97.3391C44.097 97.615 43.8499 97.9186 43.6851 98.2774C43.5204 98.6362 43.438 98.995 43.438 99.4365V107.744H41.8455H40.9668H40.2529V107.688Z" fill="#73C43D"/>
<path d="M64.8825 88.342H61.6699V107.661H64.8825V88.342Z" fill="#73C43D"/>
<path d="M73.6415 107.937C72.2686 107.937 71.0604 107.633 69.9896 106.998C68.9187 106.391 68.0675 105.536 67.436 104.459C66.8045 103.383 66.5024 102.141 66.5024 100.789C66.5024 99.4089 66.8045 98.1946 67.436 97.0907C68.0675 96.0143 68.9187 95.1588 69.9896 94.5516C71.0604 93.9445 72.296 93.6133 73.6415 93.6133C74.9869 93.6133 76.195 93.9169 77.2933 94.5516C78.3642 95.1588 79.2154 96.0143 79.8194 97.0907C80.4235 98.167 80.753 99.4089 80.753 100.789C80.753 102.169 80.451 103.383 79.8194 104.459C79.2154 105.536 78.3642 106.391 77.2933 106.998C76.195 107.633 74.9869 107.937 73.6415 107.937ZM73.6415 105.094C74.3828 105.094 75.0418 104.901 75.6184 104.515C76.195 104.128 76.6618 103.631 76.9913 102.969C77.3208 102.334 77.4855 101.589 77.4581 100.761C77.4855 99.9333 77.3208 99.1881 76.9913 98.5534C76.6618 97.9186 76.195 97.3942 75.6184 97.0355C75.0418 96.6491 74.3828 96.4835 73.6415 96.4835C72.9001 96.4835 72.2136 96.6767 71.637 97.0355C71.033 97.4218 70.5662 97.9186 70.2367 98.581C69.9072 99.2433 69.7425 99.9609 69.7425 100.789C69.7425 101.617 69.9072 102.334 70.2367 102.997C70.5662 103.631 71.033 104.156 71.637 104.542C72.2136 104.901 72.8726 105.094 73.6415 105.094Z" fill="#73C43D"/>
<path d="M86.5469 107.688L80.7808 93.9167H84.2679L88.1669 104.211L87.4804 104.376L91.5991 93.9167H95.0039L88.9357 107.688H86.5469Z" fill="#73C43D"/>
<path d="M102.307 107.937C100.879 107.937 99.589 107.633 98.4907 107.026C97.3924 106.419 96.5412 105.591 95.9096 104.542C95.3056 103.493 94.9761 102.279 94.9761 100.927C94.9761 99.8505 95.1408 98.8569 95.4978 97.9738C95.8547 97.0907 96.3215 96.3179 96.953 95.6555C97.5571 94.9932 98.2985 94.4964 99.1496 94.1376C100.001 93.7789 100.934 93.6133 101.978 93.6133C102.884 93.6133 103.708 93.7789 104.504 94.1376C105.273 94.4964 105.959 94.9656 106.536 95.5727C107.112 96.1799 107.552 96.8975 107.854 97.7254C108.156 98.5534 108.293 99.4641 108.293 100.43L108.266 101.562H97.1727L96.5686 99.3537H105.575L105.163 99.7953V99.2157C105.108 98.6638 104.943 98.1946 104.641 97.7806C104.339 97.3666 103.982 97.0355 103.515 96.8147C103.049 96.5663 102.554 96.4559 102.005 96.4559C101.154 96.4559 100.44 96.6215 99.8636 96.9527C99.2869 97.2838 98.8476 97.753 98.5456 98.3878C98.2435 98.9949 98.1063 99.7677 98.1063 100.706C98.1063 101.589 98.2985 102.362 98.6554 103.024C99.0398 103.687 99.5615 104.183 100.248 104.542C100.934 104.901 101.731 105.067 102.664 105.067C103.296 105.067 103.9 104.956 104.422 104.763C104.971 104.542 105.547 104.183 106.151 103.631L107.744 105.839C107.277 106.281 106.755 106.64 106.151 106.943C105.547 107.247 104.916 107.495 104.257 107.661C103.598 107.854 102.966 107.937 102.307 107.937Z" fill="#73C43D"/>
<path d="M8.15497 132.968C6.94683 132.968 5.84852 132.665 4.8875 132.03C3.92648 131.423 3.15767 130.567 2.60851 129.491C2.0319 128.415 1.75732 127.2 1.75732 125.793C1.75732 124.413 2.0319 123.199 2.58106 122.095C3.13021 121.018 3.89903 120.163 4.86005 119.556C5.82107 118.948 6.91937 118.617 8.12751 118.617C8.7865 118.617 9.41803 118.728 10.0496 118.921C10.6536 119.142 11.2028 119.418 11.697 119.776C12.1913 120.135 12.5757 120.521 12.8502 120.963C13.1248 121.405 13.2896 121.846 13.317 122.315L12.4658 122.426V113.346H15.6509V132.665H12.5757L12.4933 129.436L13.1248 129.491C13.0974 129.932 12.9601 130.346 12.658 130.733C12.3835 131.147 11.9991 131.506 11.5597 131.837C11.1204 132.168 10.5987 132.444 9.99464 132.637C9.39057 132.886 8.75904 132.968 8.15497 132.968ZM8.75904 130.264C9.5004 130.264 10.1594 130.07 10.736 129.684C11.3126 129.298 11.7519 128.773 12.0814 128.111C12.4109 127.449 12.5757 126.676 12.5757 125.82C12.5757 124.965 12.4109 124.192 12.0814 123.53C11.7519 122.867 11.3126 122.343 10.736 121.957C10.1594 121.57 9.5004 121.405 8.75904 121.405C8.01768 121.405 7.3587 121.598 6.78209 121.957C6.20547 122.343 5.76615 122.867 5.43666 123.53C5.10717 124.192 4.96988 124.965 4.96988 125.82C4.96988 126.703 5.13462 127.449 5.43666 128.111C5.76615 128.773 6.20547 129.298 6.78209 129.684C7.3587 130.07 8.01768 130.264 8.75904 130.264Z" fill="#C69C72"/>
<path d="M24.6847 132.968C23.2569 132.968 21.9664 132.665 20.8681 132.058C19.7698 131.45 18.9186 130.622 18.2871 129.574C17.683 128.525 17.3535 127.311 17.3535 125.958C17.3535 124.882 17.5183 123.888 17.8752 123.005C18.2322 122.122 18.6989 121.349 19.3305 120.687C19.9345 120.025 20.6759 119.528 21.5271 119.169C22.3783 118.81 23.3118 118.645 24.3552 118.645C25.2613 118.645 26.0851 118.81 26.8813 119.169C27.6502 119.528 28.3366 119.997 28.9132 120.604C29.4898 121.211 29.9291 121.929 30.2312 122.757C30.5332 123.585 30.6705 124.496 30.6705 125.462L30.643 126.593H19.5227L18.9186 124.385H27.9247L27.5129 124.827V124.247C27.4579 123.695 27.2932 123.226 26.9912 122.812C26.6891 122.398 26.3322 122.067 25.8654 121.846C25.3986 121.598 24.9044 121.487 24.3552 121.487C23.504 121.487 22.7901 121.653 22.2135 121.984C21.6369 122.315 21.1976 122.785 20.8956 123.419C20.5935 124.026 20.4562 124.799 20.4562 125.738C20.4562 126.621 20.6484 127.393 21.0054 128.056C21.3898 128.718 21.9115 129.215 22.5979 129.574C23.2844 129.932 24.0807 130.098 25.0142 130.098C25.6457 130.098 26.2498 129.988 26.7715 129.794C27.3207 129.574 27.8973 129.215 28.5013 128.663L30.0939 130.871C29.6271 131.312 29.1054 131.671 28.5013 131.975C27.8973 132.278 27.2657 132.527 26.6068 132.692C25.9752 132.885 25.3163 132.968 24.6847 132.968Z" fill="#C69C72"/>
<path d="M35.695 113.374H32.4824V132.692H35.695V113.374Z" fill="#C69C72"/>
<path d="M40.3355 116.023C39.7039 116.023 39.1822 115.858 38.8527 115.554C38.4958 115.223 38.3311 114.781 38.3311 114.174C38.3311 113.622 38.5233 113.153 38.8802 112.822C39.2372 112.463 39.7314 112.297 40.3629 112.297C41.0219 112.297 41.5161 112.463 41.8731 112.767C42.23 113.098 42.3948 113.567 42.3948 114.174C42.3948 114.726 42.2026 115.168 41.8456 115.499C41.4887 115.858 40.9944 116.023 40.3355 116.023ZM38.7978 118.949H41.9829V132.72H38.7978V118.949Z" fill="#C69C72"/>
<path d="M49.3965 132.72L43.6304 118.948H47.1175L51.0165 129.243L50.33 129.436L54.4212 118.948H57.826L51.7853 132.72H49.3965Z" fill="#C69C72"/>
<path d="M65.1574 132.968C63.7296 132.968 62.4391 132.665 61.3408 132.058C60.2424 131.45 59.3913 130.622 58.7597 129.574C58.1557 128.525 57.8262 127.311 57.8262 125.958C57.8262 124.882 57.9909 123.888 58.3479 123.005C58.7048 122.122 59.1716 121.349 59.8031 120.687C60.4347 120.025 61.1486 119.528 61.9997 119.169C62.8509 118.81 63.7845 118.645 64.8279 118.645C65.734 118.645 66.5577 118.81 67.354 119.169C68.1228 119.528 68.8093 119.997 69.3859 120.604C69.9625 121.211 70.4018 121.929 70.7038 122.757C71.0059 123.585 71.1432 124.496 71.1432 125.462L71.1157 126.593H60.0228L59.4187 124.385H68.4249L68.013 124.827V124.247C67.9581 123.695 67.7933 123.226 67.4913 122.812C67.1893 122.398 66.8323 122.067 66.3655 121.846C65.8987 121.598 65.4045 121.487 64.8553 121.487C64.0042 121.487 63.2903 121.653 62.7136 121.984C62.137 122.315 61.6977 122.785 61.3957 123.419C61.0936 124.026 60.9564 124.799 60.9564 125.738C60.9564 126.621 61.1486 127.393 61.5055 128.056C61.8899 128.718 62.4116 129.215 63.0981 129.574C63.7845 129.932 64.5808 130.098 65.5143 130.098C66.1459 130.098 66.7499 129.988 67.2716 129.794C67.8208 129.574 68.3974 129.215 69.0015 128.663L70.594 130.871C70.1272 131.312 69.6055 131.671 69.0015 131.975C68.3974 132.278 67.7659 132.527 67.1069 132.692C66.4479 132.885 65.8164 132.968 65.1574 132.968Z" fill="#C69C72"/>
<path d="M72.9277 132.72V118.948H76.0854L76.1403 123.336L75.701 122.343C75.8932 121.653 76.2227 121.018 76.6894 120.466C77.1562 119.914 77.7054 119.473 78.3095 119.142C78.9135 118.81 79.5725 118.672 80.2589 118.672C80.561 118.672 80.8356 118.7 81.1101 118.755C81.3847 118.81 81.6044 118.866 81.7691 118.948L80.9179 122.481C80.7257 122.371 80.5061 122.288 80.204 122.233C79.9295 122.177 79.6549 122.122 79.3803 122.122C78.941 122.122 78.5291 122.205 78.1447 122.371C77.7603 122.536 77.4033 122.757 77.1288 123.06C76.8267 123.364 76.6071 123.695 76.4423 124.082C76.2776 124.468 76.1952 124.91 76.1952 125.406V132.747H72.9277V132.72Z" fill="#C69C72"/>
<path d="M88.6886 132.968C87.2608 132.968 85.9703 132.665 84.872 132.058C83.7737 131.45 82.9225 130.622 82.291 129.574C81.6869 128.525 81.3574 127.311 81.3574 125.958C81.3574 124.882 81.5222 123.888 81.8791 123.005C82.2361 122.122 82.7029 121.349 83.3344 120.687C83.9659 120.025 84.6798 119.528 85.531 119.169C86.3822 118.81 87.3157 118.645 88.3591 118.645C89.2652 118.645 90.089 118.81 90.8853 119.169C91.6541 119.528 92.3405 119.997 92.9171 120.604C93.4937 121.211 93.9331 121.929 94.2351 122.757C94.5371 123.585 94.6744 124.496 94.6744 125.462L94.647 126.593H83.554L82.95 124.385H91.9561L91.5442 124.827V124.247C91.4893 123.695 91.3246 123.226 91.0225 122.812C90.7205 122.398 90.3636 122.067 89.8968 121.846C89.43 121.598 88.9358 121.487 88.3866 121.487C87.5354 121.487 86.8215 121.653 86.2449 121.984C85.6683 122.315 85.229 122.785 84.9269 123.419C84.6249 124.026 84.4876 124.799 84.4876 125.738C84.4876 126.621 84.6798 127.393 85.0368 128.056C85.4212 128.718 85.9429 129.215 86.6293 129.574C87.3158 129.932 88.112 130.098 89.0456 130.098C89.6771 130.098 90.2812 129.988 90.8029 129.794C91.352 129.574 91.9286 129.215 92.5327 128.663L94.1253 130.871C93.6585 131.312 93.1368 131.671 92.5327 131.975C91.9286 132.278 91.2971 132.527 90.6381 132.692C89.9792 132.885 89.3202 132.968 88.6886 132.968Z" fill="#C69C72"/>
<path d="M101.978 132.968C100.77 132.968 99.6713 132.665 98.7103 132.03C97.7492 131.423 96.9804 130.567 96.4313 129.491C95.8547 128.415 95.5801 127.2 95.5801 125.793C95.5801 124.413 95.8547 123.199 96.4038 122.095C96.953 121.018 97.7218 120.163 98.6828 119.556C99.6438 118.948 100.742 118.617 101.95 118.617C102.609 118.617 103.241 118.728 103.872 118.921C104.476 119.142 105.026 119.418 105.52 119.776C106.014 120.135 106.398 120.521 106.673 120.963C106.948 121.405 107.112 121.846 107.14 122.315L106.289 122.426V113.346H109.474V132.665H106.371L106.289 129.436L106.92 129.491C106.893 129.932 106.755 130.346 106.453 130.733C106.179 131.147 105.794 131.506 105.355 131.837C104.916 132.168 104.394 132.444 103.79 132.637C103.213 132.886 102.582 132.968 101.978 132.968ZM102.582 130.264C103.323 130.264 103.982 130.07 104.559 129.684C105.135 129.298 105.575 128.773 105.904 128.111C106.234 127.449 106.398 126.676 106.398 125.82C106.398 124.965 106.234 124.192 105.904 123.53C105.575 122.867 105.135 122.343 104.559 121.957C103.982 121.57 103.323 121.405 102.582 121.405C101.84 121.405 101.181 121.598 100.605 121.957C100.028 122.343 99.5889 122.867 99.2594 123.53C98.9299 124.192 98.7926 124.965 98.7926 125.82C98.7926 126.703 98.9574 127.449 99.2594 128.111C99.5889 128.773 100.028 129.298 100.605 129.684C101.181 130.07 101.84 130.264 102.582 130.264Z" fill="#C69C72"/>
</svg>
